# xmcd CD database file
#
# Track frame offsets:
#	150
#	9732
#	15130
#	27037
#	39090
#	49970
#	58987
#	78737
#	87342
#	93547
#	104747
#	113917
#	127970
#	140475
#
# Disc length: 2238 seconds
#
# Revision: 2
# Processed by: cddbd v1.5.1PL0 Copyright (c) Steve Scherf et al.
# Submitted via: CDex 1.51
#
DISCID=b408bc0e
DTITLE=Vince Guaraldi - Charlie Brown's Holiday Hits
DYEAR=1998
DGENRE=Jazz
TTITLE0=Joe Cool
TTITLE1=Surfin' Snoopy
TTITLE2=Heartburn Waltz
TTITLE3=Track Meet
TTITLE4=Camptown Races
TTITLE5=Oh, Good Grief
TTITLE6=Charlie Brown Theme
TTITLE7=Schroeder
TTITLE8=Charlie's Blues
TTITLE9=Great Pumpkin Waltz
TTITLE10=Thanksgiving Theme
TTITLE11=Linus and Lucy
TTITLE12=Christmas Time is Here (vocal)
TTITLE13=Christmas Time is Here (Instr)
EXTD=YEAR: 1998
EXTT0=
EXTT1=
EXTT2=
EXTT3=
EXTT4=
EXTT5=
EXTT6=
EXTT7=
EXTT8=
EXTT9=
EXTT10=
EXTT11=
EXTT12=
EXTT13=
PLAYORDER=
